HIERARCHY
ROOT Hips
{
  OFFSET -102.467 93.6631 130.069
  CHANNELS 6 Xposition Yposition Zposition Zrotation Xrotation Yrotation
  JOINT LeftUpLeg
  {
    OFFSET 8.64259 1.95398 -2.38835
    CHANNELS 3 Zrotation Xrotation Yrotation
    JOINT LeftLeg
    {
      OFFSET 43.7702 0 0
      CHANNELS 3 Zrotation Xrotation Yrotation
      JOINT LeftFoot
      {
        OFFSET 40.6238 0 0
        CHANNELS 3 Zrotation Xrotation Yrotation
        JOINT LeftToeBase
        {
          OFFSET 12.7242 0 0
          CHANNELS 3 Zrotation Xrotation Yrotation
          End Site
          {
            OFFSET 0 0 0
          }
        }
      }
    }
  }
  JOINT RightUpLeg
  {
    OFFSET -8.2249 1.95398 -2.59336
    CHANNELS 3 Zrotation Xrotation Yrotation
    JOINT RightLeg
    {
      OFFSET 43.5653 0 0
      CHANNELS 3 Zrotation Xrotation Yrotation
      JOINT RightFoot
      {
        OFFSET 40.6238 0 0
        CHANNELS 3 Zrotation Xrotation Yrotation
        JOINT RightToeBase
        {
          OFFSET 12.7242 0 0
          CHANNELS 3 Zrotation Xrotation Yrotation
          End Site
          {
            OFFSET 0 0 0
          }
        }
      }
    }
  }
  JOINT Spine
  {
    OFFSET 0.165834 0.87714 6.61349
    CHANNELS 3 Zrotation Xrotation Yrotation
    JOINT Spine1
    {
      OFFSET 7.38963 1.71661e-005 0
      CHANNELS 3 Zrotation Xrotation Yrotation
      JOINT Spine2
      {
        OFFSET 11.9445 1.14441e-005 0
        CHANNELS 3 Zrotation Xrotation Yrotation
        JOINT Spine3
        {
          OFFSET 14.7254 4.19617e-005 0
          CHANNELS 3 Zrotation Xrotation Yrotation
          JOINT Spine4
          {
            OFFSET 10.9679 0 0
            CHANNELS 3 Zrotation Xrotation Yrotation
            JOINT RightShoulder
            {
              OFFSET 2.46616 -1.6653 3.69651
              CHANNELS 3 Zrotation Xrotation Yrotation
              JOINT RightArm
              {
                OFFSET 13.0012 0 0
                CHANNELS 3 Zrotation Xrotation Yrotation
                JOINT RightForeArm
                {
                  OFFSET 28.7848 1.52588e-005 0
                  CHANNELS 3 Zrotation Xrotation Yrotation
                  JOINT RightHand
                  {
                    OFFSET 26.5688 1.52588e-005 0
                    CHANNELS 3 Zrotation Xrotation Yrotation
                    End Site
                    {
                      OFFSET 0 0 0
                    }
                  }
                }
              }
            }
            JOINT LeftShoulder
            {
              OFFSET 2.38034 -1.29275 -3.7523
              CHANNELS 3 Zrotation Xrotation Yrotation
              JOINT LeftArm
              {
                OFFSET 16.3182 6.10351e-005 0
                CHANNELS 3 Zrotation Xrotation Yrotation
                JOINT LeftForeArm
                {
                  OFFSET 27.0901 0 0
                  CHANNELS 3 Zrotation Xrotation Yrotation
                  JOINT LeftHand
                  {
                    OFFSET 24.5451 1.52588e-005 0
                    CHANNELS 3 Zrotation Xrotation Yrotation
                    End Site
                    {
                      OFFSET 0 0 0
                    }
                  }
                }
              }
            }
            JOINT Neck
            {
              OFFSET 5.0226 -0.0266342 0
              CHANNELS 3 Zrotation Xrotation Yrotation
              JOINT Head
              {
                OFFSET 6.69363 2.86102e-005 0
                CHANNELS 3 Zrotation Xrotation Yrotation
                End Site
                {
                  OFFSET 0 0 0
                }
              }
            }
          }
        }
      }
    }
  }
}
MOTION
Frames:	17
Frame Time:	0.0416667
-4.17659 36.8601 -10.8223 168.089 -69.0679 165.86 157.413 78.9439 121.692 -151.63 20.2842 1.72093 67.5616 4.71565 3.1402 63.4848 -2.01113 5.70622 -142.754 73.4992 25.5929 -151.371 -29.6752 -2.47557 72.5582 -9.36571 -2.6298 64.2971 -6.43348 5.19451 0.323699 12.664 -90.5405 1.54644 0.439651 -1.04093 -10.1249 0.393422 -1.05928 -32.6582 0.732154 -0.860696 -12.6455 0.732162 -0.860685 97.3197 -32.7001 -91.7285 9.63218 -29.1792 -50.0664 -48.9698 -3.53287 -70.2355 -5.60088 -0.699895 10.2748 -87.7229 -28.978 77.1557 -16.7749 18.3942 -63.9078 40.124 16.6172 -66.8352 -17.2575 -0.0431752 -4.7323 32.5168 0.390684 14.4121 -11.7249 -4.81944 -13.8062 
-4.21504 36.88 -10.8949 167.706 -69.1631 165.625 156.319 79.0301 122.775 -151.563 20.0144 1.71835 67.7527 4.90407 3.04174 63.6672 -2.12543 5.44663 -142.885 74.0113 25.6252 -151.271 -29.4353 -2.51843 72.0382 -9.08382 -2.73188 64.5121 -6.13311 5.8623 0.330795 12.6922 -90.5553 1.49017 0.448417 -1.06915 -10.1812 0.400929 -1.08786 -32.7143 0.748993 -0.884977 -12.7017 0.748999 -0.884981 97.6465 -32.5221 -91.1083 8.05718 -30.459 -51.057 -53.1274 -4.16893 -70.8427 -6.80957 -0.979192 12.4093 -87.6251 -28.7459 77.2805 -16.3709 18.4708 -64.067 39.975 16.0033 -67.1898 -17.6522 -0.168755 -3.78937 31.7355 0.0432994 14.2995 -10.8134 -5.11042 -13.7685 
-4.30994 36.7896 -11.057 167.748 -68.961 165.629 156.361 78.9566 122.603 -151.6 19.5777 1.733 68.2437 5.07488 2.55754 63.4039 -1.88024 6.02888 -144.936 73.8838 27.5789 -151.534 -29.2301 -2.49213 73.9131 -10.542 -2.80802 62.231 -6.34005 4.47294 0.319217 12.75 -90.5511 1.37442 0.427424 -1.06067 -10.2969 0.38033 -1.07846 -32.83 0.726424 -0.883192 -12.8174 0.726424 -0.883201 97.8679 -31.6399 -90.787 7.9718 -31.0336 -51.3057 -55.4271 -3.90728 -71.3497 -6.22485 -0.903922 12.6647 -87.1139 -27.4396 77.9161 -16.652 18.6201 -64.3663 39.8329 15.3078 -67.6154 -18.6872 -0.209839 -3.52719 30.4727 -0.0189674 14.3228 -9.66809 -5.16128 -13.5985 
-4.36846 36.5014 -11.2151 166.679 -68.2592 164.393 155.693 78.7604 122.687 -151.802 19.42 1.68118 68.769 5.16262 1.98727 62.9622 -1.72057 6.36718 -147.149 74.4468 29.4244 -151.821 -30.4225 -2.51129 71.6093 -11.4137 -6.78802 67.5122 -7.4435 4.71345 0.243738 12.8485 -90.5541 1.17674 0.276501 -1.07008 -10.4946 0.229136 -1.08122 -33.0272 0.585301 -0.937537 -13.0145 0.585311 -0.937526 98.3339 -30.6517 -89.9695 8.18316 -31.6338 -52.0673 -56.6535 -3.32816 -71.8299 -5.67812 -0.81988 12.7058 -86.4275 -26.4105 79.0209 -17.4191 19.1403 -64.7992 40.4398 14.546 -68.4786 -20.0198 -0.253507 -3.34122 28.9183 -0.141933 14.8306 -8.22958 -5.43303 -14.064 
-4.131 36.3739 -11.4418 161.713 -67.8198 159.709 157.648 80.0637 118.504 -151.912 19.1841 1.66134 68.615 6.01325 3.88607 63.1475 -1.59191 6.73562 -146.998 73.2671 27.4664 -151.878 -29.7604 -2.52213 74.0243 -11.5216 -4.15718 64.7356 -6.65131 4.9708 0.069177 12.8611 -90.645 1.14931 -0.106119 -1.25982 -10.5222 -0.161464 -1.25394 -33.0526 0.277384 -1.23348 -13.04 0.277379 -1.23349 98.5987 -30.2212 -89.4801 8.26769 -32.1345 -52.4481 -57.5918 -2.28514 -72.3052 -5.4768 -0.772738 12.3447 -85.9607 -25.4183 79.7115 -18.7797 19.4659 -64.4581 43.6055 13.7027 -71.1196 -24.3514 -0.101 -4.31594 27.24 -0.303315 15.1483 -6.67802 -5.67655 -13.9842 
-4.51256 36.4591 -11.7339 167.273 -68.2058 164.811 159.852 79.0915 118.702 -151.682 19.5442 1.7786 69.3809 6.31636 3.79997 62.587 -1.5153 6.83402 -138.994 71.9373 22.7364 -151.581 -27.417 -2.401 76.4304 -7.97117 3.59778 57.0817 -5.00914 4.7432 0.285127 12.9292 -90.5387 1.01566 0.365675 -1.03609 -10.6556 0.319726 -1.05118 -33.1887 0.66015 -0.878307 -13.176 0.660146 -0.878312 98.7712 -29.8115 -89.1713 8.82061 -32.7882 -52.2991 -58.7386 -1.14257 -72.9721 -6.66427 -0.955434 12.3591 -85.6473 -24.4794 80.1156 -20.2086 19.8965 -63.9557 43.335 11.5537 -72.1876 -22.2207 -0.413889 -2.53469 26.0905 -0.521203 15.585 -6.51809 -5.89683 -14.8126 
-4.58795 36.6122 -11.8761 166.05 -68.5064 163.449 159.304 79.6489 118.907 -151.323 19.4018 1.81434 69.1674 6.13771 3.47432 61.6855 -1.9815 5.42792 -137.831 70.2076 21.4592 -151.431 -25.2485 -2.44496 80.604 -6.43289 9.88557 50.2392 -3.79144 4.07008 0.259368 12.9205 -90.5285 1.03304 0.318003 -1.01797 -10.6383 0.272898 -1.03098 -33.1712 0.609226 -0.875353 -13.1586 0.609234 -0.87535 98.9655 -29.508 -88.8016 9.1232 -32.9897 -52.614 -58.8597 0.15837 -73.7042 -5.28689 -0.777543 13.135 -85.6492 -24.4792 80.1117 -20.8278 19.5006 -63.1122 43.8879 9.77429 -73.8846 -23.1091 -0.508015 -2.09256 24.924 -0.908119 15.1603 -5.19262 -6.12524 -14.6156 
-4.68248 36.7396 -11.924 166.7 -68.9511 164.468 156.575 79.6656 122.481 -151.164 19.4503 1.85816 69.1747 6.06365 3.3387 61.9109 -2.15169 5.01283 -139.133 71.062 23.3169 -151.184 -24.9374 -2.48934 80.7503 -6.87073 9.42597 50.1619 -3.23812 5.51617 0.31449 12.9136 -90.5427 1.04723 0.422525 -1.04212 -10.6241 0.376258 -1.05971 -33.1573 0.716177 -0.866969 -13.1446 0.716188 -0.866984 99.0774 -29.4582 -88.5745 9.06813 -33.2086 -53.1444 -58.5854 0.462774 -73.7821 -5.80247 -0.842658 12.7635 -85.5863 -24.6905 80.3009 -21.0794 19.164 -62.1052 44.2584 8.17241 -75.4058 -23.4423 -0.669892 -1.25403 25.0691 -0.996263 14.0458 -4.73776 -5.89285 -13.014 
-4.74253 36.7963 -12.0106 166.738 -69.1339 164.459 158.657 79.8607 120.689 -151.133 19.4956 1.92227 69.4137 6.42126 3.83357 61.9627 -1.96402 5.52903 -139.371 72.4354 23.8771 -151.059 -26.2896 -2.46963 78.2659 -7.9475 5.53 55.1138 -4.24192 5.57202 0.307863 12.9185 -90.5161 1.03736 0.419478 -0.990232 -10.6339 0.375498 -1.00774 -33.1674 0.697674 -0.818399 -13.1547 0.697689 -0.818401 99.1333 -29.107 -88.4937 9.12261 -33.374 -53.2887 -57.0378 0.713089 -73.6956 -7.84784 -1.07846 11.4336 -85.5632 -25.2827 80.5049 -20.7537 18.9141 -61.6191 44.0904 7.12652 -76.1884 -23.6707 -0.769551 -0.759841 26.5693 -0.67592 13.7116 -5.65423 -5.54717 -12.6777 
-5.0217 36.9785 -12.1474 170.774 -69.5235 168.382 161.105 79.1075 120.253 -150.846 20.0333 2.00052 69.7497 6.85884 4.60993 62.4588 -2.0381 5.43214 -141.305 74.599 27.8218 -150.837 -25.8348 -2.53409 76.2949 -9.18933 2.07321 59.2588 -5.61816 4.4958 0.5029 12.9178 -90.4786 1.0399 0.822795 -0.903484 -10.6311 0.782238 -0.938824 -33.1671 1.05628 -0.614428 -13.1544 1.05628 -0.61443 99.0692 -29.6579 -88.5715 8.4174 -33.4781 -52.675 -60.4824 0.310882 -74.2504 -7.06571 -1.14755 14.5655 -85.7408 -25.507 80.1923 -21.236 18.9116 -61.4254 45.3404 7.17835 -76.8602 -24.8856 -0.820467 -0.717296 27.4685 -0.68832 14.1982 -6.34937 -5.76746 -13.1374 
-4.60949 37.7682 -12.2488 160.728 -69.8934 158.714 159.94 80.7315 117.526 -149.577 18.7794 1.97978 68.7054 6.3426 3.68586 62.7736 -1.94623 5.73461 -148.828 75.194 31.5359 -149.83 -27.0816 -2.75236 75.0793 -10.6852 -1.4002 63.4103 -6.75654 4.18028 0.210828 12.8047 -90.6433 1.26658 0.176158 -1.24425 -10.405 0.121231 -1.2508 -32.9359 0.541943 -1.1338 -12.9233 0.541947 -1.13382 98.989 -30.7777 -88.6235 7.23864 -33.0244 -53.2061 -59.8035 0.636964 -73.8023 -4.49805 -0.645676 13.1126 -85.9328 -26.8876 80.1599 -20.4982 18.8952 -62.0629 46.6438 8.07751 -76.8032 -27.0629 -0.903067 -0.648079 30.1091 -0.126666 14.2737 -8.10018 -5.43586 -11.9995 
-4.81782 40.0529 -12.4955 159.683 -72.0436 157.89 166.104 80.2634 111.978 -146.571 18.2701 2.26439 68.2656 6.44537 3.57151 63.7166 -1.83255 6.21165 -159.134 76.6473 42.2996 -146.914 -26.6483 -3.02994 74.286 -11.2697 -2.75485 64.2867 -7.15551 3.79432 0.252354 12.6818 -90.6451 1.51055 0.257473 -1.25025 -10.161 0.202201 -1.26037 -32.6922 0.621293 -1.11509 -12.6796 0.621301 -1.11509 98.4426 -33.6549 -89.4092 3.96083 -32.1201 -54.4226 -58.9084 -1.24065 -72.7443 -5.63397 -0.856714 13.6118 -86.7478 -30.1774 79.3819 -18.0158 18.4322 -62.5863 43.5335 9.08832 -74.6324 -26.352 -0.655718 -1.71046 34.3109 0.876341 15.2621 -11.7187 -5.07859 -12.2856 
-5.0285 43.2449 -12.6992 156.49 -74.3206 154.612 173.969 78.883 104.337 -142.304 16.5906 2.59876 68.5993 6.43283 1.85077 62.4721 -1.95689 5.65043 -169.734 76.7866 52.6345 -142.82 -24.2024 -3.42347 74.8146 -10.1575 -0.115859 62.1809 -6.47475 4.13636 0.248033 12.5353 -90.5757 1.80327 0.273934 -1.11586 -9.86814 0.224564 -1.12683 -32.4004 0.596615 -0.981971 -12.3877 0.596616 -0.981974 97.58 -37.2209 -90.6353 0.845689 -30.3034 -55.3478 -55.026 -5.05972 -70.3639 -8.51188 -1.33847 13.7434 -87.999 -33.7025 77.9417 -15.8357 17.5175 -63.5853 41.1272 12.9621 -70.4189 -22.5016 -0.51623 -1.97176 38.3609 1.40221 15.1848 -14.6928 -4.77343 -12.5524 
-5.19242 46.9061 -12.7019 151.793 -76.6691 149.926 -179.693 76.7189 98.3504 -137.355 14.2933 2.92993 69.4225 6.54654 -0.147776 61.7031 -2.34016 4.45723 179.563 75.8674 62.8801 -138.004 -22.3694 -3.7108 75.4965 -9.29601 2.08246 59.2433 -5.55016 4.63503 0.146131 12.3269 -90.4892 2.2194 0.102119 -0.952773 -9.45189 0.0600927 -0.956352 -31.9846 0.38374 -0.87804 -11.972 0.383734 -0.878057 96.7617 -39.031 -91.8941 -0.31539 -28.9402 -57.2544 -50.9214 -11.0876 -66.1168 -8.27644 -1.25033 13.0137 -89.9065 -37.46 75.5598 -14.1862 15.6974 -62.8496 37.8085 18.8256 -63.9665 -20.7989 -0.202553 -3.68635 43.42 2.45735 14.819 -18.4648 -4.09347 -11.142 
-5.40556 50.8441 -12.5569 142.825 -78.4002 140.901 -176.026 74.353 94.7715 -131.829 13.0287 3.15336 69.8434 6.22127 -1.99231 60.31 -2.45921 3.78246 169.585 73.7485 72.0241 -132.543 -21.2965 -3.77664 75.7155 -9.42742 2.27586 59.9189 -5.33189 5.43532 -0.0235906 12.0917 -90.3932 2.68915 -0.201225 -0.77062 -8.98203 -0.234949 -0.761027 -31.5153 0.039671 -0.795463 -11.5026 0.0396664 -0.795478 96.9642 -38.794 -91.5579 5.73661 -28.785 -57.0194 -52.0318 -14.6254 -64.9246 -0.48016 -0.0078161 12.542 -91.6328 -39.6479 73.2404 -12.9309 14.3195 -62.2943 34.9011 25.7992 -56.9368 -17.6949 -0.0919091 -4.35573 48.7557 2.83414 13.1504 -21.6454 -3.4588 -9.82657 
-5.51262 54.9995 -12.3515 125.554 -79.5696 123.92 -175.089 72.5834 93.0151 -125.792 12.628 3.18519 70.2247 6.33929 -2.72489 59.189 -2.48946 3.40019 161.225 71.5231 78.9908 -126.574 -21.372 -3.60145 75.8999 -9.83574 1.74305 59.771 -5.50509 4.99817 -0.253217 11.6951 -90.3496 3.48106 -0.645284 -0.685284 -8.18991 -0.67481 -0.65623 -30.7242 -0.409504 -0.847527 -10.7115 -0.4095 -0.847533 97.5901 -38.6757 -90.446 12.8746 -29.9263 -54.4989 -50.0333 -15.3455 -64.2109 -1.83703 -0.239123 13.3683 -92.6303 -41.6447 72.1993 -11.4596 14.5713 -61.4131 38.2257 33.7074 -55.8907 -16.6058 -0.308384 -2.61945 52.7387 2.88196 11.937 -24.224 -3.22246 -8.46569 
-5.76176 59.6468 -12.072 113.911 -80.1204 111.71 -172.666 68.7256 90.0647 -118.654 11.8645 3.13201 70.5228 6.6287 -3.01103 58.7033 -2.34358 3.69304 158.704 67.986 81.0937 -119.54 -20.7846 -3.03332 75.9374 -11.3359 1.09624 60.6861 -5.5213 5.39317 -0.43265 11.3476 -90.2045 4.17676 -0.947212 -0.395077 -7.49389 -0.963684 -0.353012 -30.0306 -0.784687 -0.661501 -10.018 -0.784691 -0.661496 97.6541 -39.6772 -90.2172 18.0571 -30.5106 -50.917 -48.0496 -17.8864 -62.3796 -7.32396 -1.00898 11.5482 -92.6445 -42.1014 72.3148 -12.12 15.1075 -58.5304 37.3682 36.687 -53.9338 -13.4361 -0.265238 -2.56607 52.4499 2.84701 12.0564 -23.3946 -3.45592 -7.89905 
